# Blender v2.81 (sub 16) OBJ File: 'plataformas.blend'
# www.blender.org
mtllib placa_01.mtl
o Placa_01_Cube.003
v -1.000000 0.000000 0.100000
v -1.000000 0.000000 -0.100000
v 1.000000 0.000000 0.100000
v 1.000000 3.494602 -0.100000
v 1.000000 0.000000 -0.100000
v 1.000000 3.494187 0.100000
v 0.071155 0.000000 -0.100000
v -0.071155 0.000000 -0.100000
v -0.071155 4.487542 -0.100000
v -0.071155 0.000000 0.100000
v 0.071155 0.000000 0.100000
v -0.071155 4.487542 0.100000
v 0.199203 2.968486 0.100000
v 0.200965 2.971132 -0.100000
v 0.071155 2.916088 0.100000
v 0.071155 2.918013 -0.100000
v -0.073173 2.915518 0.100000
v -0.071155 2.915509 0.100000
v -0.071410 2.918164 -0.100000
v -0.071155 2.918163 -0.100000
v 0.299665 3.068084 0.100000
v 0.301428 3.070730 -0.100000
v -0.203620 2.970212 0.100000
v -0.201857 2.972859 -0.100000
v -0.303201 3.070668 0.100000
v -0.301439 3.073314 -0.100000
v 0.354372 3.198544 0.100000
v 0.356135 3.201190 -0.100000
v -0.356757 3.201591 0.100000
v -0.354995 3.204238 -0.100000
v 0.354995 3.340003 0.100000
v 0.356757 3.342649 -0.100000
v -0.356135 3.343051 0.100000
v -0.354372 3.345697 -0.100000
v 0.301439 3.470926 0.100000
v 0.303201 3.473573 -0.100000
v -0.301428 3.473510 0.100000
v -0.299666 3.476157 -0.100000
v 0.201857 3.571382 0.100000
v 0.203620 3.574028 -0.100000
v -0.200966 3.573109 0.100000
v -0.199203 3.575755 -0.100000
v 0.071410 3.626076 0.100000
v 0.073173 3.628723 -0.100000
v 0.071155 3.626077 0.100000
v 0.071155 3.628731 -0.100000
v -0.071155 3.626227 0.100000
v -0.071155 3.628152 -0.100000
v -0.658994 4.487542 0.100000
v -1.000000 4.146536 0.100000
v -1.000000 4.146536 -0.100000
v -0.658994 4.487542 -0.100000
v 0.071155 4.377781 -0.100000
v 0.180916 4.487542 -0.100000
v 0.180916 4.487542 0.100000
v 0.071155 4.377781 0.100000
v 1.000000 3.915761 0.100000
v 0.428220 4.487542 0.100000
v 0.428220 4.487542 -0.100000
v 1.000000 3.915761 -0.100000
v 1.000000 3.205129 0.100000
v 1.000000 3.201827 -0.100000
v 1.000000 3.206999 -0.100000
vt 0.375000 0.416667
vt 0.501786 0.416667
vt 0.505956 0.428313
vt 0.513775 0.437326
vt 0.524017 0.442234
vt 0.524473 0.500000
vt 0.524067 0.500000
vt 0.375000 0.500000
vt 0.375000 0.750000
vt 0.524326 0.750000
vt 0.523809 0.807924
vt 0.513568 0.812832
vt 0.505749 0.821845
vt 0.501635 0.833333
vt 0.375000 0.833333
vt 0.375000 0.250000
vt 0.598230 0.250000
vt 0.625000 0.280594
vt 0.625000 0.333333
vt 0.557535 0.333333
vt 0.553421 0.321845
vt 0.545603 0.312832
vt 0.535361 0.307924
vt 0.524256 0.307868
vt 0.513978 0.312673
vt 0.506092 0.321607
vt 0.501798 0.333310
vt 0.501798 0.333333
vt 0.375000 0.333333
vt 0.375000 0.916667
vt 0.501590 0.916667
vt 0.501591 0.916848
vt 0.505884 0.928551
vt 0.513770 0.937485
vt 0.524048 0.942290
vt 0.535153 0.942234
vt 0.545395 0.937326
vt 0.553214 0.928313
vt 0.557384 0.916667
vt 0.625000 0.916667
vt 0.625000 0.969406
vt 0.598230 1.000000
vt 0.375000 1.000000
vt 0.547051 0.500000
vt 0.545400 0.437485
vt 0.553286 0.428551
vt 0.557580 0.416848
vt 0.557580 0.416667
vt 0.616383 0.416667
vt 0.625000 0.426514
vt 0.625000 0.448702
vt 0.580113 0.500000
vt 0.545192 0.812673
vt 0.547018 0.750000
vt 0.580113 0.750000
vt 0.625000 0.801298
vt 0.625000 0.823486
vt 0.616383 0.833333
vt 0.557372 0.833333
vt 0.557372 0.833311
vt 0.553078 0.821607
vt 0.535122 0.442290
vt 0.534914 0.807868
vt 0.791667 0.500000
vt 0.844406 0.500000
vt 0.844406 0.750000
vt 0.791667 0.750000
vt 0.375000 0.000000
vt 0.598230 0.000000
vt 0.291667 0.500000
vt 0.291667 0.750000
vt 0.613511 0.419539
vt 0.535107 0.439140
vt 0.512558 0.378310
vt 0.125000 0.500000
vt 0.208333 0.500000
vt 0.208333 0.750000
vt 0.125000 0.750000
vt 0.562500 0.562952
vt 0.562500 0.958030
vt 0.625000 0.958922
vt 0.625000 0.563843
vt 0.500000 0.560462
vt 0.500000 0.955541
vt 0.687500 0.958081
vt 0.687500 0.563002
vt 0.812500 0.556878
vt 0.812500 0.951957
vt 0.875000 0.947606
vt 0.875000 0.552527
vt 0.750531 0.560525
vt 0.751373 0.955554
vt 0.460715 0.457738
vt 0.437500 0.556755
vt 0.437500 0.951834
vt 0.312500 0.548043
vt 0.312500 0.943122
vt 0.375000 0.947473
vt 0.375000 0.552394
vt 0.419664 0.415468
vt 0.062500 0.541970
vt 0.062500 0.937049
vt 0.125000 0.936157
vt 0.125000 0.541078
vt 0.251373 0.544445
vt 0.250531 0.939475
vt 0.937500 0.548166
vt 0.937500 0.943245
vt 1.000000 0.939538
vt 1.000000 0.544459
vt 0.000000 0.544459
vt 0.000000 0.939538
vt 0.187500 0.541919
vt 0.187500 0.936998
vt 0.187613 0.937002
vt 0.188392 0.541954
vt 0.688391 0.958046
vt 0.687613 0.562998
vt 0.875000 0.500000
vt 0.875000 0.750000
vt 0.625000 0.833333
vt 0.625000 0.416667
vt 0.676298 0.500000
vt 0.676298 0.750000
vt 0.698486 0.500000
vt 0.698486 0.750000
vn 0.0000 -0.0000 -1.0000
vn 0.0000 0.0000 1.0000
vn 0.5773 0.5773 -0.5773
vn -0.2971 0.7173 -0.6302
vn -0.2971 0.7173 0.6302
vn 0.5773 0.5773 0.5773
vn -0.5773 -0.5773 0.5773
vn -0.7173 0.2971 0.6302
vn -0.7173 0.2971 -0.6302
vn -0.5773 -0.5773 -0.5773
vn 0.5773 -0.5773 -0.5773
vn 0.5773 -0.5773 0.5773
vn -0.5791 -0.5719 -0.5810
vn -0.5778 -0.5802 0.5740
vn 0.6638 -0.4483 0.5985
vn 0.6639 -0.4429 -0.6026
vn 0.6276 0.4147 -0.6589
vn 0.6169 0.4089 0.6724
vn 0.4136 0.6132 0.6730
vn 0.4209 0.6240 -0.6583
vn 0.7372 0.1422 -0.6605
vn 0.7277 0.1425 0.6709
vn 0.1481 0.7251 0.6724
vn 0.1494 0.7371 -0.6590
vn -0.4144 0.6236 -0.6629
vn -0.4093 0.6208 0.6686
vn -0.6178 0.4184 0.6658
vn -0.6195 0.4160 -0.6657
vn -0.6638 0.4483 -0.5985
vn -0.6639 0.4429 0.6026
vn 0.7333 -0.1506 -0.6630
vn 0.7290 -0.1469 0.6685
vn 0.4093 -0.6208 -0.6686
vn 0.4144 -0.6236 0.6629
vn 0.6195 -0.4160 0.6657
vn 0.6178 -0.4184 -0.6658
vn 0.5777 0.5799 -0.5744
vn 0.5792 0.5717 0.5810
vn -0.5431 -0.3601 -0.7585
vn -0.5528 -0.3652 0.7490
vn -0.4209 -0.6240 0.6583
vn -0.4136 -0.6132 -0.6730
vn -0.6420 0.1294 -0.7557
vn -0.6459 0.1326 0.7518
vn -0.7372 -0.1422 0.6605
vn -0.7277 -0.1425 -0.6709
vn -0.1480 -0.7252 -0.6724
vn -0.1493 -0.7373 0.6588
vn 0.7071 0.0000 -0.7071
vn 0.7071 0.0000 0.7071
vn 0.2971 0.7173 -0.6302
vn 0.2971 0.7173 0.6302
vn 0.7173 0.2971 0.6302
vn 0.7173 0.2971 -0.6302
usemtl None
s off
f 7/1/1 16/2/1 14/3/1 22/4/1 28/5/1 63/6/1 62/7/1 5/8/1
f 3/9/2 61/10/2 27/11/2 21/12/2 13/13/2 15/14/2 11/15/2
f 2/16/1 51/17/1 52/18/1 9/19/1 48/20/1 42/21/1 38/22/1 34/23/1 30/24/1 26/25/1 24/26/1 19/27/1 20/28/1 8/29/1
f 10/30/2 18/31/2 17/32/2 23/33/2 25/34/2 29/35/2 33/36/2 37/37/2 41/38/2 47/39/2 12/40/2 49/41/2 50/42/2 1/43/2
f 4/44/1 36/45/1 40/46/1 44/47/1 46/48/1 53/49/1 54/50/1 59/51/1 60/52/1
f 35/53/2 6/54/2 57/55/2 58/56/2 55/57/2 56/58/2 45/59/2 43/60/2 39/61/2
f 63/6/1 28/5/1 32/62/1 36/45/1 4/44/1
f 27/11/2 61/10/2 6/54/2 35/53/2 31/63/2
s 1
f 9/64/3 52/65/4 49/66/5 12/67/6
f 1/68/7 50/69/8 51/17/9 2/16/10
f 7/70/10 5/8/11 3/9/12 11/71/7
f 56/58/8 53/72/9 46/73/13 45/59/14
f 12/40/6 47/39/15 48/74/16 9/19/3
f 2/75/10 8/76/11 10/77/12 1/78/7
f 26/79/17 25/80/18 23/81/19 24/82/20
f 30/83/21 29/84/22 25/80/18 26/79/17
f 24/82/20 23/81/19 17/85/23 19/86/24
f 14/87/25 13/88/26 21/89/27 22/90/28
f 13/88/26 14/87/25 16/91/29 15/92/30
f 15/14/30 16/93/29 7/70/10 11/15/7
f 34/94/31 33/95/32 29/84/22 30/83/21
f 42/96/33 41/97/34 37/98/35 38/99/36
f 20/100/37 18/31/38 10/30/12 8/76/11
f 38/99/36 37/98/35 33/95/32 34/94/31
f 36/101/39 35/102/40 39/103/41 40/104/42
f 41/97/34 42/96/33 48/105/16 47/106/15
f 28/107/43 27/108/44 31/109/45 32/110/46
f 32/111/46 31/112/45 35/102/40 36/101/39
f 44/113/47 43/114/48 45/115/14 46/116/13
f 40/104/42 39/103/41 43/114/48 44/113/47
f 22/90/28 21/89/27 27/108/44 28/107/43
f 19/86/24 17/85/23 18/117/38 20/118/37
f 49/66/5 52/65/4 51/119/9 50/120/8
f 53/72/9 56/58/8 55/121/5 54/122/4
f 5/8/11 62/7/49 61/10/50 3/9/12
f 59/123/51 58/124/52 57/55/53 60/52/54
f 59/123/51 54/125/4 55/126/5 58/124/52
f 6/54/50 4/44/49 60/52/54 57/55/53
f 61/10/50 63/6/49 4/44/49 6/54/50
f 63/6/49 61/10/50 62/7/49
